<svg width="32" height="32" viewBox="0 0 32 32" fill="none" xmlns="http://www.w3.org/2000/svg">
<path d="M21.6172 0C27.3515 0 32.0002 4.64862 32.0002 10.383V31.2057H21.6172V0Z" fill="#FFFDFD"/>
<path d="M21.6172 0C27.3515 0 32.0002 4.64862 32.0002 10.383V31.2057H21.6172V0Z" fill="#1A1A1A"/>
<path d="M1.36182 0.0568848H10.3831C16.0548 0.0568848 20.6526 4.6547 20.6526 10.3264H1.36182V0.0568848Z" fill="#FFFDFD"/>
<path d="M1.36182 0.0568848H10.3831C16.0548 0.0568848 20.6526 4.6547 20.6526 10.3264H1.36182V0.0568848Z" fill="#1A1A1A"/>
<path d="M0 20.4822C0 26.8433 5.15666 32 11.5177 32C15.1908 32 18.4623 30.2806 20.5713 27.6028L4.4539 11.3843C1.74368 13.4916 0 16.7833 0 20.4822Z" fill="#FFFDFD"/>
<path d="M0 20.4822C0 26.8433 5.15666 32 11.5177 32C15.1908 32 18.4623 30.2806 20.5713 27.6028L4.4539 11.3843C1.74368 13.4916 0 16.7833 0 20.4822Z" fill="#1A1A1A"/>
</svg>
